<svg id="Layer_1" data-name="Layer 1" xmlns="http://www.w3.org/2000/svg" viewBox="0 0 159.76 103.81"><defs><style>.cls-1{fill:#fefefe;}.cls-2{fill:#242222;}.cls-3{fill:#252423;}.cls-4{fill:#282727;}.cls-5{fill:#058dfd;}.cls-6{fill:#038dfd;}.cls-7{fill:#058efd;}.cls-8{fill:#058dfc;}.cls-9{fill:#078efd;}.cls-10{fill:#0672ee;}.cls-11{fill:#1a5cd1;}.cls-12{fill:#0476f1;}.cls-13{fill:#0f0f0f;}.cls-14{fill:#111;}.cls-15{fill:#090908;}.cls-16{fill:#090909;}.cls-17{fill:#fafcfe;}.cls-18{fill:#f4f9fd;}</style></defs><path class="cls-1" d="M0,0H159.76V103.81H0ZM92.14,66A3.06,3.06,0,0,0,95,69.1a4.66,4.66,0,0,0,4.45-1.27l.15,1h3.53v-11h-3.6c0,2.07,0,4.12,0,6.17a2.72,2.72,0,0,1-.42,1.43,2.11,2.11,0,0,1-2.35.57c-.74-.32-.83-1-.84-1.68q0-3.25-.08-6.51l-3.66-.26Zm43.56-1.82a5.17,5.17,0,0,0-1.22-5c-1.36-1.41-3.15-1.59-5-1.53a5.67,5.67,0,0,0-5.3,4.62,5.78,5.78,0,0,0,2.32,5.91c2.47,1.57,5.13,1.44,7.77.57,1.83-.61,1.82-.71,1-2.4-.12-.24-.23-.48-.24-.49-1.6.26-3,.6-4.52.69a2.38,2.38,0,0,1-2.56-2.18c2.35,0,4.69,0,7,0A3.3,3.3,0,0,0,135.7,64.13ZM78.15,53.71a2.41,2.41,0,0,0-.11.52q0,7.05,0,14.12a2.75,2.75,0,0,0,.09.5H82V63.41c1.23,0,2.36.08,3.49,0A4.94,4.94,0,0,0,90,56.66c-.55-1.78-2.25-2.86-4.67-3ZM50.56,41.18H45.94V37.83H52l.18-.16V35H41.69V50.79H52.41c0-.92,0-1.8,0-2.67,0-.17-.4-.42-.62-.43-.76-.06-1.53,0-2.3,0H45.94V44.14H51.3l.15-.22V41.33l-.15-.15h-.56A.19.19,0,0,0,50.56,41.18ZM27.18,50.53V41.27a4.41,4.41,0,0,1,.44.37c1.73,2.5,3.45,5,5.2,7.49.42.59.85,1.5,1.39,1.59a23.92,23.92,0,0,0,4.15.08V34.92c-.8,0-1.56,0-2.32,0-.6,0-1.21.12-1.81.18a.15.15,0,0,0,0,.17v8.57a1.81,1.81,0,0,1-.73-.65c-1.81-2.59-3.61-5.19-5.44-7.77a1.08,1.08,0,0,0-.67-.48c-1.43,0-2.86,0-4.33,0v16l4.11-.19A.12.12,0,0,0,27.18,50.53ZM53.31,34.92c1.07,3.45,2.11,6.79,3.16,10.13.52,1.65,1.08,3.29,1.59,5a1,1,0,0,0,1.17.84c.92-.06,1.84,0,2.76,0a.88.88,0,0,0,.68-.41c.53-1.49,1-3,1.49-4.5l1.44-4.41c1.07,2.93,1.94,5.81,2.86,8.67a1.08,1.08,0,0,0,.78.63c1.28.07,2.56,0,4,0,1.67-5.27,3.33-10.54,5-15.87h-5c-.84,3.08-1.68,6.14-2.58,9.45-1-3.17-1.8-6-2.7-8.92a1,1,0,0,0-.74-.54c-.91-.06-1.84,0-2.75,0a.73.73,0,0,0-.83.64c-.28,1-.59,1.92-.88,2.88l-1.91,6.17c-.16-.48-.29-.79-.37-1.11-.68-2.56-1.35-5.12-2-7.68-.11-.42-.11-.91-.79-.89C56.19,34.94,54.81,34.92,53.31,34.92ZM80,46.13c-.47.72-.85,1.37-1.29,2s-.27,1,.37,1.37a10.25,10.25,0,0,0,7,1.41c3.11-.52,4.85-2.48,4.72-5.39-.1-2-1.69-3.64-4.21-4.34A14.24,14.24,0,0,1,84,40.25,1.73,1.73,0,0,1,83.1,39c0-.32.57-.81,1-1A2.83,2.83,0,0,1,85.66,38c1,.26,2.06.67,3.18,1.05l1.42-2.55c-1.88-1.92-6.73-2.63-9.51-.87-2.31,1.46-2.67,5.32-.61,6.87a18.7,18.7,0,0,0,3.45,1.77c.76.36,1.62.53,2.36.93a1.48,1.48,0,0,1,.66,1.13,1.65,1.65,0,0,1-.81,1.08,3.31,3.31,0,0,1-1.51.27A6.57,6.57,0,0,1,80,46.13ZM56.1,69.41a7.61,7.61,0,0,1-.46-.82c-.9-2.16-1.79-4.33-2.69-6.49-.62-1.49-1.19-3-1.9-4.46a1.76,1.76,0,0,0-1.18-.91c-.34,0-.87.47-1.09.86-.62,1.12-1.12,2.3-1.67,3.45-1,2.05-.88,2.07-3,2.07H26.44c-.68,0-1.19.22-1.2.95s.48.84,1.08.84l19.67,0a2.29,2.29,0,0,0,2.23-1.46c.53-1.12,1.06-2.24,1.67-3.55C51,62.38,52,64.73,53,67.07c.59,1.37,1.16,2.75,1.78,4.1.27.59.63,1.12,1.43,1.08s1.1-.54,1.38-1.16c.67-1.53,1.38-3,2.05-4.58S60.5,64.9,62,64.89H72.86c.6,0,1.15-.1,1.16-.84s-.47-.94-1.11-.94c-4.14,0-8.27,0-12.41,0a2.21,2.21,0,0,0-2.06,1.28C57.66,66,56.92,67.65,56.1,69.41Zm56.69-1.36a9,9,0,0,0,7.93.6,3.16,3.16,0,0,0,1.72-3.71,3.33,3.33,0,0,0-2.52-2.27c-1-.3-1.93-.55-2.87-.92a1.12,1.12,0,0,1-.57-.79,1,1,0,0,1,.57-.68,4.65,4.65,0,0,1,1.78-.09,24,24,0,0,1,2.47.77c.32-.7.64-1.41,1-2.07-.06-.1-.06-.14-.09-.15a9.25,9.25,0,0,0-.88-.47,7.48,7.48,0,0,0-6.93.22,3,3,0,0,0-1.45,3,2.56,2.56,0,0,0,1.73,2.46c1.2.43,2.44.75,3.65,1.15.75.25,1,1,.53,1.47a1.41,1.41,0,0,1-1,.32c-1.3-.18-2.58-.46-4-.72,0,0-.17.25-.3.49C113.29,67,113.08,67.47,112.79,68.05Zm-.66-1.78c-1.79.17-2.19-.19-2.2-1.92V53.7H106.2c0,.29,0,.53,0,.77,0,3.67,0,7.34,0,11,0,2.45,1.18,3.62,3.62,3.6,3,0,2.46.27,2.41-2.67A.71.71,0,0,0,112.13,66.27Z"/><path class="cls-2" d="M53.31,34.92c1.5,0,2.88,0,4.26,0,.68,0,.68.47.79.89.69,2.56,1.36,5.12,2,7.68.08.32.21.63.37,1.11l1.91-6.17c.29-1,.6-1.92.88-2.88a.73.73,0,0,1,.83-.64c.91.05,1.84,0,2.75,0a1,1,0,0,1,.74.54c.9,2.87,1.75,5.75,2.7,8.92.9-3.31,1.74-6.37,2.58-9.45h5c-1.69,5.33-3.35,10.6-5,15.87-1.39,0-2.67,0-4,0a1.08,1.08,0,0,1-.78-.63c-.92-2.86-1.79-5.74-2.86-8.67L64.16,45.9c-.49,1.5-1,3-1.49,4.5a.88.88,0,0,1-.68.41c-.92,0-1.84,0-2.76,0A1,1,0,0,1,58.06,50c-.51-1.66-1.07-3.3-1.59-5C55.42,41.71,54.38,38.37,53.31,34.92Z"/><path class="cls-3" d="M34.23,35.1c.6-.06,1.21-.15,1.81-.18.76,0,1.52,0,2.32,0V50.8a23.92,23.92,0,0,1-4.15-.08c-.54-.09-1-1-1.39-1.59-1.75-2.49-3.47-5-5.2-7.49a4.41,4.41,0,0,0-.44-.37v9.26l-.06,0a.93.93,0,0,0,0,.13l-4.11.19v-16c1.47,0,2.9,0,4.33,0a1.08,1.08,0,0,1,.67.48c1.83,2.58,3.63,5.18,5.44,7.77a1.81,1.81,0,0,0,.73.65V35.27l.06,0A.5.5,0,0,0,34.23,35.1Z"/><path class="cls-4" d="M51.3,44.14H45.94v3.53h3.52c.77,0,1.54,0,2.3,0,.22,0,.61.26.62.43.06.87,0,1.75,0,2.67H41.69V35H52.21v2.71l-.18.16H45.94v3.35H51.3l.15.15v2.59Z"/><path class="cls-2" d="M80,46.13a6.57,6.57,0,0,0,4.26,1.56,3.31,3.31,0,0,0,1.51-.27,1.65,1.65,0,0,0,.81-1.08A1.48,1.48,0,0,0,86,45.21c-.74-.4-1.6-.57-2.36-.93a18.7,18.7,0,0,1-3.45-1.77c-2.06-1.55-1.7-5.41.61-6.87,2.78-1.76,7.63-1,9.51.87l-1.42,2.55c-1.12-.38-2.13-.79-3.18-1.05a2.83,2.83,0,0,0-1.58.06c-.41.16-1,.65-1,1A1.73,1.73,0,0,0,84,40.25a14.24,14.24,0,0,0,2.67.91c2.52.7,4.11,2.31,4.21,4.34.13,2.91-1.61,4.87-4.72,5.39a10.25,10.25,0,0,1-7-1.41c-.64-.36-.81-.74-.37-1.37S79.56,46.85,80,46.13Z"/><path class="cls-5" d="M56.1,69.41c.82-1.76,1.56-3.39,2.34-5a2.21,2.21,0,0,1,2.06-1.28c4.14,0,8.27,0,12.41,0,.64,0,1.11.26,1.11.94s-.56.84-1.16.84H62c-1.51,0-1.83.24-2.42,1.62s-1.38,3-2.05,4.58c-.28.62-.61,1.12-1.38,1.16s-1.16-.49-1.43-1.08c-.62-1.35-1.19-2.73-1.78-4.1-1-2.34-2-4.69-3.06-7.21-.61,1.31-1.14,2.43-1.67,3.55A2.29,2.29,0,0,1,46,64.87l-19.67,0c-.6,0-1.08-.18-1.08-.84s.52-.95,1.2-.95H44.09c2.14,0,2,0,3-2.07.55-1.15,1-2.33,1.67-3.45.22-.39.75-.89,1.09-.86a1.76,1.76,0,0,1,1.18.91c.71,1.45,1.28,3,1.9,4.46.9,2.16,1.79,4.33,2.69,6.49A7.61,7.61,0,0,0,56.1,69.41Z"/><path class="cls-6" d="M85.3,53.69c2.42.11,4.12,1.19,4.67,3a4.94,4.94,0,0,1-4.47,6.73c-1.13.1-2.26,0-3.49,0v5.44H78.13a2.75,2.75,0,0,1-.09-.5q0-7.06,0-14.12a2.41,2.41,0,0,1,.11-.52c1.84,0,3.69.09,5.54.11A14.55,14.55,0,0,0,85.3,53.69ZM82,60.79c1.42-.28,3,.58,3.94-1a2.52,2.52,0,0,0-.08-2.8c-1-1.24-2.51-.67-3.86-.76Z"/><path class="cls-7" d="M127.93,64.3a2.38,2.38,0,0,0,2.56,2.18c1.47-.09,2.92-.43,4.52-.69,0,0,.12.25.24.49.84,1.69.85,1.79-1,2.4-2.64.87-5.3,1-7.77-.57a5.78,5.78,0,0,1-2.32-5.91,5.67,5.67,0,0,1,5.3-4.62c1.85-.06,3.64.12,5,1.53a5.17,5.17,0,0,1,1.22,5h-7.28A1.69,1.69,0,0,0,127.93,64.3Zm4.45-2.13a2.06,2.06,0,0,0-2.28-2.25A2.13,2.13,0,0,0,128,62.17Z"/><path class="cls-7" d="M95.8,57.87q0,3.26.08,6.51c0,.7.1,1.36.84,1.68a2.11,2.11,0,0,0,2.35-.57,2.72,2.72,0,0,0,.42-1.43c0-2.05,0-4.1,0-6.17h3.6v11H99.58l-.15-1A4.66,4.66,0,0,1,95,69.1,3.06,3.06,0,0,1,92.14,66a6.3,6.3,0,0,0,.14-1c0-2.1,0-4.21,0-6.32,0-.58.16-.82.77-.79C94,57.91,94.89,57.87,95.8,57.87Z"/><path class="cls-8" d="M112.79,68.05c.29-.58.5-1,.73-1.43.13-.24.29-.47.3-.49,1.4.26,2.68.54,4,.72a1.41,1.41,0,0,0,1-.32c.51-.43.22-1.22-.53-1.47-1.21-.4-2.45-.72-3.65-1.15a2.56,2.56,0,0,1-1.73-2.46,3,3,0,0,1,1.45-3,7.48,7.48,0,0,1,6.93-.22,9.25,9.25,0,0,1,.88.47s0,0,.09.15c-.31.66-.63,1.37-1,2.07a24,24,0,0,0-2.47-.77,4.65,4.65,0,0,0-1.78.09,1,1,0,0,0-.57.68,1.12,1.12,0,0,0,.57.79c.94.37,1.91.62,2.87.92a3.33,3.33,0,0,1,2.52,2.27,3.16,3.16,0,0,1-1.72,3.71A9,9,0,0,1,112.79,68.05Z"/><path class="cls-9" d="M112.13,66.27a.71.71,0,0,1,.06.14c0,2.94.56,2.64-2.41,2.67-2.44,0-3.61-1.15-3.62-3.6,0-3.67,0-7.34,0-11,0-.24,0-.48,0-.77h3.73V64.35C109.94,66.08,110.34,66.44,112.13,66.27Z"/><path class="cls-10" d="M95.8,57.87c-.91,0-1.83,0-2.75,0-.61,0-.78.21-.77.79,0,2.11,0,4.22,0,6.32a6.3,6.3,0,0,1-.14,1V57.61Z"/><path class="cls-11" d="M127.93,64.3a1.69,1.69,0,0,1,.49-.17h7.28a3.3,3.3,0,0,1-.74.17C132.62,64.31,130.28,64.3,127.93,64.3Z"/><path class="cls-12" d="M85.3,53.69a14.55,14.55,0,0,1-1.61.13c-1.85,0-3.7-.07-5.54-.11Z"/><path class="cls-13" d="M34.23,35.1a.5.5,0,0,1,.05.13l-.06,0A.15.15,0,0,1,34.23,35.1Z"/><path class="cls-14" d="M52,37.83l.18-.16Z"/><path class="cls-15" d="M50.74,41.18h-.18A.19.19,0,0,1,50.74,41.18Z"/><path class="cls-15" d="M51.45,41.33l-.15-.15Z"/><path class="cls-15" d="M51.3,44.14l.15-.22Z"/><path class="cls-16" d="M27.16,50.7a.93.93,0,0,1,0-.13l.06,0A.12.12,0,0,1,27.16,50.7Z"/><path class="cls-17" d="M82,60.79V56.23c1.35.09,2.85-.48,3.86.76a2.52,2.52,0,0,1,.08,2.8C85.05,61.37,83.44,60.51,82,60.79Z"/><path class="cls-18" d="M132.38,62.17H128a2.13,2.13,0,0,1,2.08-2.25A2.06,2.06,0,0,1,132.38,62.17Z"/></svg>